<svg width="600" height="400" viewBox="0 0 600 400" fill="none" xmlns="http://www.w3.org/2000/svg">
  <!-- Background shapes and patterns -->
  <circle cx="100" cy="50" r="30" fill="#4A6670" opacity="0.1"/>
  <circle cx="500" cy="350" r="40" fill="#D67D5B" opacity="0.1"/>

  <!-- Abstract skill visualization elements -->
  <rect x="50" y="120" width="150" height="10" rx="5" fill="#4A6670" opacity="0.2"/>
  <rect x="50" y="150" width="120" height="10" rx="5" fill="#4A6670" opacity="0.2"/>
  <rect x="50" y="180" width="180" height="10" rx="5" fill="#4A6670" opacity="0.2"/>
  <rect x="50" y="210" width="90" height="10" rx="5" fill="#4A6670" opacity="0.2"/>
  <rect x="50" y="240" width="140" height="10" rx="5" fill="#4A6670" opacity="0.2"/>

  <rect x="350" y="120" width="180" height="10" rx="5" fill="#D67D5B" opacity="0.2"/>
  <rect x="350" y="150" width="150" height="10" rx="5" fill="#D67D5B" opacity="0.2"/>
  <rect x="350" y="180" width="200" height="10" rx="5" fill="#D67D5B" opacity="0.2"/>
  <rect x="350" y="210" width="120" height="10" rx="5" fill="#D67D5B" opacity="0.2"/>
  <rect x="350" y="240" width="170" height="10" rx="5" fill="#D67D5B" opacity="0.2"/>

  <!-- Decorative dots -->
  <circle cx="30" cy="120" r="5" fill="#2F7D95" opacity="0.4"/>
  <circle cx="30" cy="150" r="5" fill="#2F7D95" opacity="0.4"/>
  <circle cx="30" cy="180" r="5" fill="#2F7D95" opacity="0.4"/>
  <circle cx="30" cy="210" r="5" fill="#2F7D95" opacity="0.4"/>
  <circle cx="30" cy="240" r="5" fill="#2F7D95" opacity="0.4"/>

  <circle cx="330" cy="120" r="5" fill="#E4B363" opacity="0.4"/>
  <circle cx="330" cy="150" r="5" fill="#E4B363" opacity="0.4"/>
  <circle cx="330" cy="180" r="5" fill="#E4B363" opacity="0.4"/>
  <circle cx="330" cy="210" r="5" fill="#E4B363" opacity="0.4"/>
  <circle cx="330" cy="240" r="5" fill="#E4B363" opacity="0.4"/>

  <!-- Connecting lines -->
  <line x1="100" y1="50" x2="30" y2="120" stroke="#4A6670" stroke-width="1" opacity="0.2"/>
  <line x1="500" y1="350" x2="330" y2="240" stroke="#D67D5B" stroke-width="1" opacity="0.2"/>
</svg>